<svg height="512pt" viewBox="-16 0 512 512.001" width="512pt" xmlns="http://www.w3.org/2000/svg"><path d="m227.90625 105.074219c-16.054688-27.804688-45.9375-45.074219-78.003906-45.074219-49.628906 0-90 40.371094-90 90l60 30 60-30 42.507812-24.433594c7.179688-4.144531 9.640625-13.316406 5.496094-20.492187zm0 0" fill="#c6e2e7"/><path d="m389.902344 135v15l-105 30-60-17.101562-45-12.898438c0-15.902344 6.300781-31.199219 17.699218-42.300781 7.5-7.796875 17.097657-12.898438 27.300782-15 9.597656-2.398438 19.5-2.398438 29.097656-.296875 13.800781-19.804688 36.300781-32.402344 60.902344-32.402344 41.398437 0 75 33.601562 75 75zm0 0" fill="#deecf1"/><path d="m389.902344 135v15l-105 30-60-17.101562v-70.199219c9.597656-2.398438 19.5-2.398438 29.097656-.296875 13.800781-19.804688 36.300781-32.402344 60.902344-32.402344 41.398437 0 75 33.601562 75 75zm0 0" fill="#c6e2e7"/><path d="m389.902344 196.800781-27 274.300781c-2.699219 22.796876-21.902344 40.898438-45 40.898438h-186c-23.101563 0-42.300782-18.097656-45-40.898438l-17.101563-174.402343-31.5 13.199219 27.601563-53.097657-6-60c-.902344-8.398437 5.097656-15.898437 13.199218-16.800781h303.601563c8.097656.902344 14.097656 8.402344 13.199219 16.800781zm0 0" fill="#ffd400"/><path d="m389.902344 196.800781-27 274.300781c-2.699219 22.796876-21.902344 40.898438-45 40.898438h-93v-332h151.800781c8.097656.902344 14.097656 8.402344 13.199219 16.800781zm0 0" fill="#ff9f00"/><path d="m419.902344 165v30c0 8.402344-6.601563 15-15 15h-360c-8.402344 0-15-6.597656-15-15v-30c0-8.402344 6.597656-15 15-15h75l30 30 30-30h225c8.398437 0 15 6.597656 15 15zm0 0" fill="#4a696f"/><path d="m419.902344 165v30c0 8.402344-6.601563 15-15 15h-180v-60h180c8.398437 0 15 6.597656 15 15zm0 0" fill="#3e5959"/><path d="m235.703125 321c-3 6.898438-6.601563 13.800781-10.800781 20.699219-9.601563 16.800781-22.199219 33-37.199219 47.699219-32.703125 32.703124-69.902344 52.800781-102.902344 58.800781-6.300781.898437-12.601562 1.800781-18.597656 1.800781-19.203125 0-36-6-48.300781-18-35.402344-35.699219-16.800782-110.402344 42.597656-169.800781l5.402344-5.398438 3.898437 39.898438c-39.597656 46.5-48.898437 95.703125-30.601562 114 8.699219 8.402343 24 10.800781 42.601562 7.203125 25.199219-5.101563 56.097657-21 84.898438-49.800782 18-18.300781 32.703125-38.699218 41.703125-59.101562 2.699218-6.597656 9.898437-9.898438 16.5-8.699219 1.199218 0 2.398437.300781 3.296875.898438 7.503906 3.300781 11.101562 12.300781 7.503906 19.800781zm0 0" fill="#4a696f"/><path d="m119.902344 210c0 16.570312 13.429687 30 30 30 16.570312 0 30-13.429688 30-30v-60h-60zm0 0" fill="#c6e2e7"/><path d="m434.902344 0c-24.902344 0-45 20.097656-45 45s20.097656 45 45 45c24.898437 0 45-20.097656 45-45s-20.101563-45-45-45zm0 0" fill="#deecf1"/><path d="m479.902344 45c0 24.902344-20.101563 45-45 45v-90c24.898437 0 45 20.097656 45 45zm0 0" fill="#c6e2e7"/><path d="m235.703125 321c-3 6.898438-6.601563 13.800781-10.800781 20.699219v-41.398438c1.199218 0 2.398437.300781 3.300781.898438 7.5 3.300781 11.097656 12.300781 7.5 19.800781zm0 0" fill="#3e5959"/><path d="m269.902344 315c0 8.402344-6.601563 15-15 15h-60c-8.402344 0-15-6.597656-15-15s6.597656-15 15-15h60c8.398437 0 15 6.597656 15 15zm0 0" fill="#3e5959"/><path d="m269.902344 315c0 8.402344-6.601563 15-15 15h-30v-30h30c8.398437 0 15 6.597656 15 15zm0 0" fill="#384949"/></svg>